<svg width="16" height="16" viewBox="0 0 16 16" fill="none" xmlns="http://www.w3.org/2000/svg">
<g id="Save">
<path id="Shape" d="M4.00024 2.99995C3.44796 2.99995 3.00024 3.44767 3.00024 3.99995V12C3.00024 12.5522 3.44796 13 4.00024 13V9.49995C4.00024 8.67153 4.67182 7.99995 5.50024 7.99995H10.5002C11.3287 7.99995 12.0002 8.67153 12.0002 9.49995V13C12.5525 13 13.0002 12.5522 13.0002 12V5.62127C13.0002 5.35606 12.8949 5.1017 12.7074 4.91417L11.086 3.29285C10.8985 3.10531 10.6441 2.99995 10.3789 2.99995H10.0002V4.49995C10.0002 5.32838 9.32867 5.99995 8.50024 5.99995H6.50024C5.67182 5.99995 5.00024 5.32838 5.00024 4.49995V2.99995H4.00024ZM6.00024 2.99995V4.49995C6.00024 4.7761 6.2241 4.99995 6.50024 4.99995H8.50024C8.77639 4.99995 9.00024 4.7761 9.00024 4.49995V2.99995H6.00024ZM11.0002 13V9.49995C11.0002 9.22381 10.7764 8.99995 10.5002 8.99995H5.50024C5.2241 8.99995 5.00024 9.22381 5.00024 9.49995V13H11.0002ZM2.00024 3.99995C2.00024 2.89538 2.89567 1.99995 4.00024 1.99995H10.3789C10.9094 1.99995 11.4181 2.21067 11.7931 2.58574L13.4145 4.20706C13.7895 4.58213 14.0002 5.09084 14.0002 5.62127V12C14.0002 13.1045 13.1048 14 12.0002 14H4.00024C2.89567 14 2.00024 13.1045 2.00024 12V3.99995Z" fill="#3B3B3B"/>
</g>
</svg>
