<svg width="20" height="20" viewBox="0 0 20 20" fill="none" xmlns="http://www.w3.org/2000/svg">
<g id="&#232;&#138;&#130;&#231;&#130;&#185;-&#231;&#148;&#187;&#229;&#184;&#131;">
<g id="Prohibited">
<path id="Shape" d="M13.8746 5.41833C11.5172 3.42026 7.98144 3.53327 5.75736 5.75736C3.53327 7.98144 3.42026 11.5172 5.41833 13.8746L13.8746 5.41833ZM14.5817 6.12543L6.12543 14.5817C8.48282 16.5797 12.0186 16.4667 14.2426 14.2426C16.4667 12.0186 16.5797 8.48282 14.5817 6.12543ZM5.05025 5.05025C7.78392 2.31658 12.2161 2.31658 14.9497 5.05025C17.6834 7.78392 17.6834 12.2161 14.9497 14.9497C12.2161 17.6834 7.78392 17.6834 5.05025 14.9497C2.31658 12.2161 2.31658 7.78392 5.05025 5.05025Z" fill="white"/>
</g>
</g>
</svg>
