<svg width="20" height="20" viewBox="0 0 20 20" fill="none" xmlns="http://www.w3.org/2000/svg">
<g id="&#232;&#138;&#130;&#231;&#130;&#185;-&#231;&#148;&#187;&#229;&#184;&#131;">
<g id="and">
<path id="&#38;" d="M7.60352 8.89844L9.51953 7.53613C9.88867 7.28418 10.1729 7.03223 10.3721 6.78027C10.5771 6.52246 10.6797 6.1709 10.6797 5.72559C10.6797 5.37988 10.5449 5.06641 10.2754 4.78516C10.0059 4.49805 9.625 4.35449 9.13281 4.35449C8.79297 4.35449 8.50586 4.43359 8.27148 4.5918C8.03711 4.75 7.86133 4.96094 7.74414 5.22461C7.62695 5.48242 7.56836 5.7666 7.56836 6.07715C7.56836 6.34082 7.63281 6.61328 7.76172 6.89453C7.89062 7.17578 8.06934 7.46875 8.29785 7.77344C8.52637 8.07812 8.78711 8.40039 9.08008 8.74023L15.1357 16H13.1846L8.21875 10.0586C7.7793 9.54297 7.38672 9.07129 7.04102 8.64355C6.69531 8.20996 6.42285 7.79102 6.22363 7.38672C6.03027 6.98242 5.93359 6.56348 5.93359 6.12988C5.93359 5.46191 6.06543 4.89941 6.3291 4.44238C6.59863 3.97949 6.97363 3.62793 7.4541 3.3877C7.93457 3.14746 8.49707 3.02734 9.1416 3.02734C9.76855 3.02734 10.3076 3.15332 10.7588 3.40527C11.2158 3.65137 11.5674 3.97949 11.8135 4.38965C12.0596 4.79395 12.1826 5.23926 12.1826 5.72559C12.1826 6.13574 12.1094 6.50488 11.9629 6.83301C11.8164 7.15527 11.6113 7.45117 11.3477 7.7207C11.0898 7.99023 10.7881 8.25391 10.4424 8.51172L7.90234 10.4014C7.48047 10.7119 7.17285 11.0078 6.97949 11.2891C6.78613 11.5703 6.66016 11.8193 6.60156 12.0361C6.54883 12.2529 6.52246 12.4258 6.52246 12.5547C6.52246 12.9707 6.61328 13.3516 6.79492 13.6973C6.97656 14.043 7.25195 14.3213 7.62109 14.5322C7.99609 14.7373 8.46484 14.8398 9.02734 14.8398C9.51953 14.8398 9.99707 14.7285 10.46 14.5059C10.9287 14.2773 11.3477 13.9551 11.7168 13.5391C12.0859 13.1172 12.3789 12.6162 12.5957 12.0361C12.8184 11.4502 12.9297 10.8027 12.9297 10.0938H14.3887C14.3887 10.6738 14.333 11.2217 14.2217 11.7373C14.1104 12.2529 13.9375 12.7334 13.7031 13.1787C13.4746 13.6182 13.1816 14.0195 12.8242 14.3828C12.7715 14.4355 12.7305 14.4971 12.7012 14.5674C12.6719 14.6377 12.6309 14.6992 12.5781 14.752C12.1387 15.2266 11.5967 15.584 10.9521 15.8242C10.3135 16.0586 9.67188 16.1758 9.02734 16.1758C8.17773 16.1758 7.44238 16.0205 6.82129 15.71C6.20605 15.3994 5.73145 14.9717 5.39746 14.4268C5.06348 13.8818 4.89648 13.2578 4.89648 12.5547C4.89648 12.0156 5.01074 11.541 5.23926 11.1309C5.47363 10.7207 5.79297 10.3369 6.19727 9.97949C6.60742 9.62207 7.07617 9.26172 7.60352 8.89844Z" fill="white"/>
</g>
</g>
</svg>
