<svg width="20" height="20" viewBox="0 0 20 20" fill="none" xmlns="http://www.w3.org/2000/svg">
<g id="&#232;&#138;&#130;&#231;&#130;&#185;-&#231;&#148;&#187;&#229;&#184;&#131;">
<g id="Flash Play" clip-path="url(#clip0_5212_139597)">
<path id="Subtract" d="M11.2788 2C11.977 2 12.4605 2.69781 12.2154 3.35156L11.2222 6H13.2515C13.8793 6.00011 14.2291 6.72547 13.8384 7.2168L13.2085 8.00684C12.6803 8.03441 12.1723 8.13839 11.6939 8.30469L12.7329 7H10.5005C10.3366 7 10.1828 6.9198 10.0894 6.78516C9.99597 6.65037 9.97418 6.47777 10.0318 6.32422L11.2788 3H6.87356L5.08547 9H7.00051C7.1578 9.00005 7.30553 9.07438 7.39993 9.2002C7.4943 9.32603 7.52397 9.48864 7.48 9.63965L6.01321 14.6689C5.9897 14.7496 6.00152 14.8048 6.02004 14.8438C6.04127 14.8882 6.08163 14.9316 6.13821 14.9609C6.19485 14.9903 6.25372 14.9986 6.30227 14.9902C6.3448 14.9829 6.39638 14.9603 6.44875 14.8945L8.03274 12.9043C8.01166 13.1 7.99953 13.2987 7.99953 13.5C7.99953 13.8231 8.0291 14.1395 8.08254 14.4473L7.23098 15.5176C6.37721 16.5896 4.66937 15.7045 5.05325 14.3887L6.33352 10H4.74953C4.24796 9.99985 3.88778 9.51686 4.03078 9.03613L5.91457 2.71484C6.04088 2.29097 6.43127 2 6.87356 2H11.2788Z" fill="white"/>
<g id="Modifier">
<path id="Shape" d="M13.5 9C15.9853 9 18 11.0147 18 13.5C18 15.9853 15.9853 18 13.5 18C11.0147 18 9 15.9853 9 13.5C9 11.0147 11.0147 9 13.5 9ZM12.7568 11.5723C12.4236 11.3728 12 11.6126 12 12.001V14.9951C12.0001 15.3835 12.4236 15.6233 12.7568 15.4238L15.2578 13.9268C15.5819 13.7327 15.5818 13.2635 15.2578 13.0693L12.7568 11.5723Z" fill="white"/>
</g>
</g>
</g>
<defs>
<clipPath id="clip0_5212_139597">
<rect width="16" height="16" fill="white" transform="translate(2 2)"/>
</clipPath>
</defs>
</svg>
