<svg width="20" height="20" viewBox="0 0 20 20" fill="none" xmlns="http://www.w3.org/2000/svg">
<g id="&#232;&#138;&#130;&#231;&#130;&#185;-&#231;&#148;&#187;&#229;&#184;&#131;">
<g id="Lock Closed">
<path id="Shape" d="M11 11C11 11.5523 10.5523 12 10 12C9.44772 12 9 11.5523 9 11C9 10.4477 9.44772 10 10 10C10.5523 10 11 10.4477 11 11ZM7 6H6.5C5.11929 6 4 7.11929 4 8.5V13.5C4 14.8807 5.11929 16 6.5 16H13.5C14.8807 16 16 14.8807 16 13.5V8.5C16 7.11929 14.8807 6 13.5 6H13V5.5C13 3.84315 11.6569 2.5 10 2.5C8.34315 2.5 7 3.84315 7 5.5V6ZM8 5.5C8 4.39543 8.89543 3.5 10 3.5C11.1046 3.5 12 4.39543 12 5.5V6H8V5.5ZM13.5 7C14.3284 7 15 7.67157 15 8.5V13.5C15 14.3284 14.3284 15 13.5 15H6.5C5.67157 15 5 14.3284 5 13.5V8.5C5 7.67157 5.67157 7 6.5 7H13.5Z" fill="white"/>
</g>
</g>
</svg>
