<svg width="20" height="20" viewBox="0 0 20 20" fill="none" xmlns="http://www.w3.org/2000/svg">
<g id="&#232;&#138;&#130;&#231;&#130;&#185;-&#231;&#148;&#187;&#229;&#184;&#131;">
<g id="Settings">
<path id="Shape" d="M9.99994 8C8.89537 8 7.99994 8.89543 7.99994 10C7.99994 11.1046 8.89537 12 9.99994 12C11.1045 12 11.9999 11.1046 11.9999 10C11.9999 8.89543 11.1045 8 9.99994 8ZM8.99994 10C8.99994 9.44772 9.44765 9 9.99994 9C10.5522 9 10.9999 9.44772 10.9999 10C10.9999 10.5523 10.5522 11 9.99994 11C9.44765 11 8.99994 10.5523 8.99994 10ZM12.618 6.39833C12.233 6.46825 11.8639 6.21413 11.7937 5.83074L11.534 4.41496C11.5082 4.27427 11.3996 4.16301 11.2591 4.13325C10.8482 4.04621 10.4268 4.00195 10 4.00195C9.57289 4.00195 9.1513 4.04627 8.74013 4.13341C8.5996 4.1632 8.49104 4.27452 8.46529 4.41527L8.20629 5.8308C8.1994 5.86844 8.18942 5.90551 8.17647 5.9416C8.04476 6.30859 7.6392 6.49978 7.27062 6.36863L5.91115 5.88463C5.77603 5.83652 5.62511 5.87431 5.52891 5.98033C4.96005 6.60729 4.52892 7.34708 4.2672 8.15302C4.22305 8.28899 4.26562 8.43805 4.37502 8.53053L5.47694 9.46206C5.50626 9.48685 5.53352 9.51399 5.55843 9.5432C5.81177 9.84027 5.77528 10.2856 5.47693 10.5378L4.37502 11.4693C4.26562 11.5618 4.22305 11.7109 4.2672 11.8469C4.52892 12.6528 4.96005 13.3926 5.52891 14.0196C5.62511 14.1256 5.77603 14.1634 5.91115 14.1153L7.27068 13.6312C7.30687 13.6184 7.3441 13.6084 7.38196 13.6015C7.76701 13.5316 8.13608 13.7857 8.2063 14.1691L8.46529 15.5846C8.49104 15.7254 8.5996 15.8367 8.74013 15.8665C9.1513 15.9536 9.57289 15.9979 10 15.9979C10.4268 15.9979 10.8482 15.9537 11.2591 15.8666C11.3996 15.8369 11.5082 15.7256 11.534 15.5849L11.7937 14.1692C11.8006 14.1314 11.8106 14.0944 11.8235 14.0583C11.9552 13.6913 12.3608 13.5001 12.7294 13.6312L14.0888 14.1153C14.224 14.1634 14.3749 14.1256 14.4711 14.0196C15.04 13.3926 15.4711 12.6528 15.7328 11.8469C15.777 11.7109 15.7344 11.5618 15.625 11.4693L14.5231 10.5378C14.4937 10.513 14.4665 10.4859 14.4416 10.4567C14.1882 10.1596 14.2247 9.71429 14.5231 9.46205L15.625 8.53053C15.7344 8.43805 15.777 8.28899 15.7328 8.15302C15.4711 7.34708 15.04 6.60729 14.4711 5.98033C14.3749 5.87431 14.224 5.83652 14.0888 5.88463L12.7293 6.36865C12.6931 6.38152 12.6559 6.39146 12.618 6.39833ZM5.99863 6.97726L6.93522 7.3107C7.82017 7.62559 8.79872 7.16815 9.11769 6.2794C9.14903 6.19207 9.17324 6.1021 9.18996 6.01078L9.36738 5.04113C9.5757 5.01512 9.78684 5.00195 10 5.00195C10.213 5.00195 10.424 5.0151 10.6321 5.04107L10.8101 6.01117C10.9805 6.9408 11.8727 7.55003 12.7967 7.38225C12.8877 7.36572 12.9775 7.34176 13.0647 7.31073L14.0014 6.97726C14.2564 7.31084 14.4684 7.67476 14.6319 8.06064L13.8774 8.6984C13.1566 9.30787 13.0675 10.3865 13.6807 11.1056C13.7408 11.1761 13.8067 11.2417 13.8775 11.3015L14.6319 11.9392C14.4684 12.3251 14.2564 12.689 14.0014 13.0226L13.0646 12.6891C12.1797 12.3742 11.2013 12.8317 10.8823 13.7205C10.851 13.8078 10.8268 13.8978 10.81 13.9891L10.6321 14.9588C10.424 14.9848 10.213 14.9979 10 14.9979C9.78684 14.9979 9.5757 14.9848 9.36738 14.9587L9.18994 13.989C9.01965 13.0592 8.12743 12.4498 7.2033 12.6176C7.11227 12.6342 7.0225 12.6581 6.93528 12.6892L5.99863 13.0226C5.74357 12.689 5.53161 12.3251 5.36814 11.9392L6.12257 11.3015C6.84343 10.692 6.93254 9.61339 6.31933 8.89433C6.25917 8.82378 6.19332 8.75822 6.12254 8.69838L5.36814 8.06064C5.53161 7.67476 5.74357 7.31084 5.99863 6.97726Z" fill="white"/>
</g>
</g>
</svg>
