<svg width="20" height="20" viewBox="0 0 20 20" fill="none" xmlns="http://www.w3.org/2000/svg">
<g id="&#232;&#138;&#130;&#231;&#130;&#185;-&#231;&#148;&#187;&#229;&#184;&#131;">
<g id="corba">
<path id="ORB" d="M7.17969 10.0234V10.293C7.17969 10.7253 7.12109 11.1133 7.00391 11.457C6.88672 11.8008 6.72135 12.0938 6.50781 12.3359C6.29427 12.5755 6.03906 12.7591 5.74219 12.8867C5.44792 13.0143 5.12109 13.0781 4.76172 13.0781C4.40495 13.0781 4.07812 13.0143 3.78125 12.8867C3.48698 12.7591 3.23177 12.5755 3.01562 12.3359C2.79948 12.0938 2.63151 11.8008 2.51172 11.457C2.39453 11.1133 2.33594 10.7253 2.33594 10.293V10.0234C2.33594 9.58854 2.39453 9.20052 2.51172 8.85938C2.62891 8.51562 2.79427 8.22266 3.00781 7.98047C3.22396 7.73828 3.47917 7.55339 3.77344 7.42578C4.07031 7.29818 4.39714 7.23438 4.75391 7.23438C5.11328 7.23438 5.4401 7.29818 5.73438 7.42578C6.03125 7.55339 6.28646 7.73828 6.5 7.98047C6.71615 8.22266 6.88281 8.51562 7 8.85938C7.11979 9.20052 7.17969 9.58854 7.17969 10.0234ZM5.99609 10.293V10.0156C5.99609 9.71354 5.96875 9.44792 5.91406 9.21875C5.85938 8.98958 5.77865 8.79688 5.67188 8.64062C5.5651 8.48438 5.4349 8.36719 5.28125 8.28906C5.1276 8.20833 4.95182 8.16797 4.75391 8.16797C4.55599 8.16797 4.38021 8.20833 4.22656 8.28906C4.07552 8.36719 3.94661 8.48438 3.83984 8.64062C3.73568 8.79688 3.65625 8.98958 3.60156 9.21875C3.54688 9.44792 3.51953 9.71354 3.51953 10.0156V10.293C3.51953 10.5924 3.54688 10.8581 3.60156 11.0898C3.65625 11.319 3.73698 11.513 3.84375 11.6719C3.95052 11.8281 4.08073 11.9466 4.23438 12.0273C4.38802 12.1081 4.5638 12.1484 4.76172 12.1484C4.95964 12.1484 5.13542 12.1081 5.28906 12.0273C5.44271 11.9466 5.57161 11.8281 5.67578 11.6719C5.77995 11.513 5.85938 11.319 5.91406 11.0898C5.96875 10.8581 5.99609 10.5924 5.99609 10.293ZM8.02344 7.3125H10.1445C10.5794 7.3125 10.9531 7.3776 11.2656 7.50781C11.5807 7.63802 11.8229 7.83073 11.9922 8.08594C12.1615 8.34115 12.2461 8.65495 12.2461 9.02734C12.2461 9.33203 12.194 9.59375 12.0898 9.8125C11.9883 10.0286 11.8438 10.2096 11.6562 10.3555C11.4714 10.4987 11.2539 10.6133 11.0039 10.6992L10.6328 10.8945H8.78906L8.78125 9.98047H10.1523C10.3581 9.98047 10.5286 9.94401 10.6641 9.87109C10.7995 9.79818 10.901 9.69661 10.9688 9.56641C11.0391 9.4362 11.0742 9.28516 11.0742 9.11328C11.0742 8.93099 11.0404 8.77344 10.9727 8.64062C10.9049 8.50781 10.8021 8.40625 10.6641 8.33594C10.526 8.26562 10.3529 8.23047 10.1445 8.23047H9.19531V13H8.02344V7.3125ZM11.2031 13L9.90625 10.4648L11.1445 10.457L12.457 12.9453V13H11.2031ZM15.375 10.5039H13.9141L13.9062 9.69922H15.1328C15.349 9.69922 15.526 9.67188 15.6641 9.61719C15.8021 9.5599 15.9049 9.47786 15.9727 9.37109C16.043 9.26172 16.0781 9.12891 16.0781 8.97266C16.0781 8.79557 16.0443 8.65234 15.9766 8.54297C15.9115 8.43359 15.8086 8.35417 15.668 8.30469C15.5299 8.25521 15.3516 8.23047 15.1328 8.23047H14.3203V13H13.1484V7.3125H15.1328C15.4635 7.3125 15.7591 7.34375 16.0195 7.40625C16.2826 7.46875 16.5052 7.5638 16.6875 7.69141C16.8698 7.81901 17.0091 7.98047 17.1055 8.17578C17.2018 8.36849 17.25 8.59766 17.25 8.86328C17.25 9.09766 17.1966 9.3138 17.0898 9.51172C16.9857 9.70964 16.8203 9.87109 16.5938 9.99609C16.3698 10.1211 16.0768 10.1901 15.7148 10.2031L15.375 10.5039ZM15.3242 13H13.5938L14.0508 12.0859H15.3242C15.5299 12.0859 15.6979 12.0534 15.8281 11.9883C15.9583 11.9206 16.0547 11.8294 16.1172 11.7148C16.1797 11.6003 16.2109 11.4688 16.2109 11.3203C16.2109 11.1536 16.1823 11.0091 16.125 10.8867C16.0703 10.7643 15.9818 10.6706 15.8594 10.6055C15.737 10.5378 15.5755 10.5039 15.375 10.5039H14.2461L14.2539 9.69922H15.6602L15.9297 10.0156C16.276 10.0104 16.5547 10.0716 16.7656 10.1992C16.9792 10.3242 17.1341 10.487 17.2305 10.6875C17.3294 10.888 17.3789 11.1029 17.3789 11.332C17.3789 11.6966 17.2995 12.0039 17.1406 12.2539C16.9818 12.5013 16.7487 12.6875 16.4414 12.8125C16.1367 12.9375 15.7643 13 15.3242 13Z" fill="white"/>
</g>
</g>
</svg>
