<svg width="20" height="20" viewBox="0 0 20 20" fill="none" xmlns="http://www.w3.org/2000/svg">
<g id="&#232;&#138;&#130;&#231;&#130;&#185;-&#231;&#148;&#187;&#229;&#184;&#131;">
<g id="Mail">
<path id="Shape" d="M4 8.03807V13C4 14.1046 4.89543 15 6 15H14C15.1046 15 16 14.1046 16 13V7C16 5.89543 15.1046 5 14 5H6C4.89543 5 4 5.89543 4 7V8.03807C4 8.03809 4 8.03804 4 8.03807ZM6 6H14C14.5523 6 15 6.44772 15 7V7.73987L10.0001 10.4321L5 7.73976V7C5 6.44772 5.44772 6 6 6ZM5 8.87552L9.76305 11.4402C9.91104 11.5199 10.0892 11.5199 10.2371 11.4402L15 8.87562V13C15 13.5523 14.5523 14 14 14H6C5.44772 14 5 13.5523 5 13V8.87552Z" fill="white"/>
</g>
</g>
</svg>
