<svg width="20" height="20" viewBox="0 0 20 20" fill="none" xmlns="http://www.w3.org/2000/svg">
<g id="&#232;&#138;&#130;&#231;&#130;&#185;-&#231;&#148;&#187;&#229;&#184;&#131;">
<g id="Database Arrow Right">
<path id="Shape" d="M6 7.021V14.5C6 14.979 6.956 15.628 8.545 15.887C8.734 16.277 8.968 16.642 9.239 16.974C6.775 16.801 5 15.795 5 14.5V5.5C5 4.075 7.149 3 10 3C12.851 3 15 4.075 15 5.5V8.208C14.678 8.117 14.343 8.054 14 8.023V7.021C12.786 7.719 11.399 8.058 10 8C8.601 8.058 7.214 7.719 6 7.021ZM14 5.5C14 4.888 12.441 4 10 4C7.558 4 6 4.888 6 5.5C6 6.112 7.559 7 10 7C12.441 7 14 6.112 14 5.5ZM13.5 9C15.9853 9 18 11.0147 18 13.5C18 15.9853 15.9853 18 13.5 18C11.0147 18 9 15.9853 9 13.5C9 11.0147 11.0147 9 13.5 9ZM15.8532 13.854L15.8557 13.8514C15.9026 13.804 15.938 13.7495 15.9621 13.6914C15.9861 13.6333 15.9996 13.5697 16 13.503L16 13.5L16 13.497C15.9996 13.4303 15.9861 13.3667 15.9621 13.3086C15.9377 13.2496 15.9015 13.1944 15.8536 13.1464L13.8536 11.1464C13.6583 10.9512 13.3417 10.9512 13.1464 11.1464C12.9512 11.3417 12.9512 11.6583 13.1464 11.8536L14.2929 13H11.5C11.2239 13 11 13.2239 11 13.5C11 13.7761 11.2239 14 11.5 14H14.2929L13.1464 15.1464C12.9512 15.3417 12.9512 15.6583 13.1464 15.8536C13.3417 16.0488 13.6583 16.0488 13.8536 15.8536L15.8532 13.854Z" fill="white"/>
</g>
</g>
</svg>
