<svg width="20" height="20" viewBox="0 0 20 20" fill="none" xmlns="http://www.w3.org/2000/svg">
<g id="&#232;&#138;&#130;&#231;&#130;&#185;-&#231;&#148;&#187;&#229;&#184;&#131;">
<g id="run external rule">
<path id="Subtract" d="M12.25 3C13.2165 3 14 3.7835 14 4.75V11H17V12.5C17 13.8807 15.8807 15 14.5 15H12.3984C12.5605 14.6831 12.6933 14.3488 12.792 14H13V4.75C13 4.33579 12.6642 4 12.25 4H6.75C6.33579 4 6 4.33579 6 4.75V7.20801C5.65132 7.30664 5.31682 7.4386 5 7.60059V4.75C5 3.7835 5.7835 3 6.75 3H12.25ZM14 12V14H14.5C15.3284 14 16 13.3284 16 12.5V12H14ZM11 6C11.2761 6 11.5 6.22386 11.5 6.5C11.5 6.77614 11.2761 7 11 7H8C7.72386 7 7.5 6.77614 7.5 6.5C7.5 6.22386 7.72386 6 8 6H11Z" fill="white"/>
<g id="Modifier">
<path id="Shape" fill-rule="evenodd" clip-rule="evenodd" d="M3 12.5C3 14.9853 5.01472 17 7.5 17C9.98528 17 12 14.9853 12 12.5C12 10.0147 9.98528 8 7.5 8C5.01472 8 3 10.0147 3 12.5ZM8.39645 9.89645C8.20118 10.0917 8.20118 10.4083 8.39645 10.6036L9.29289 11.5H7.75C6.23122 11.5 5 12.7312 5 14.25V14.5C5 14.7761 5.22386 15 5.5 15C5.77614 15 6 14.7761 6 14.5V14.25C6 13.2835 6.7835 12.5 7.75 12.5H9.29289L8.39645 13.3964C8.20118 13.5917 8.20118 13.9083 8.39645 14.1036C8.59171 14.2988 8.90829 14.2988 9.10355 14.1036L10.8557 12.3514C10.9026 12.304 10.938 12.2495 10.9621 12.1914C10.9865 12.1324 11 12.0678 11 12C11 11.9322 10.9865 11.8676 10.9621 11.8086C10.9377 11.7496 10.9015 11.6944 10.8536 11.6464L9.10355 9.89645C8.90829 9.70118 8.59171 9.70118 8.39645 9.89645Z" fill="white"/>
</g>
</g>
</g>
</svg>
