<svg width="20" height="20" viewBox="0 0 20 20" fill="none" xmlns="http://www.w3.org/2000/svg">
<g id="&#232;&#138;&#130;&#231;&#130;&#185;-&#231;&#148;&#187;&#229;&#184;&#131;">
<g id="Document">
<path id="Shape" d="M7 3C5.89543 3 5 3.89543 5 5V15C5 16.1046 5.89543 17 7 17H13C14.1046 17 15 16.1046 15 15V7.41421C15 7.01639 14.842 6.63486 14.5607 6.35355L11.6464 3.43934C11.3651 3.15804 10.9836 3 10.5858 3H7ZM6 5C6 4.44772 6.44772 4 7 4H10V6.5C10 7.32843 10.6716 8 11.5 8H14V15C14 15.5523 13.5523 16 13 16H7C6.44772 16 6 15.5523 6 15V5ZM13.7929 7H11.5C11.2239 7 11 6.77614 11 6.5V4.20711L13.7929 7Z" fill="white"/>
</g>
</g>
</svg>
