<svg width="20" height="20" viewBox="0 0 20 20" fill="none" xmlns="http://www.w3.org/2000/svg">
<g id="&#232;&#138;&#130;&#231;&#130;&#185;-&#231;&#148;&#187;&#229;&#184;&#131;">
<g id="Math Formula">
<g id="Shape">
<path d="M10.3299 3.22521C8.7405 2.51001 6.92544 3.59968 6.80948 5.33868L6.6987 7H5.5C5.22386 7 5 7.22386 5 7.5C5 7.77614 5.22386 8 5.5 8H6.63201L6.19225 14.5948C6.12267 15.6382 5.03364 16.292 4.08003 15.8629L3.70482 15.6941C3.453 15.5807 3.15699 15.693 3.04367 15.9448C2.93036 16.1967 3.04263 16.4927 3.29445 16.606L3.66966 16.7748C5.25901 17.49 7.07407 16.4004 7.19004 14.6614L7.63423 8H9.5C9.77614 8 10 7.77614 10 7.5C10 7.22386 9.77614 7 9.5 7H7.70092L7.80726 5.40522C7.87684 4.36182 8.96587 3.70801 9.91949 4.13714L10.2947 4.30598C10.5465 4.4193 10.8425 4.30702 10.9558 4.0552C11.0692 3.80338 10.9569 3.50738 10.7051 3.39406L10.3299 3.22521Z" fill="white"/>
<path d="M10.1592 10.0479C10.2758 9.93134 10.4713 9.95752 10.5531 10.1006L11.8764 12.4165L9.14652 15.1464C8.95126 15.3417 8.95126 15.6583 9.14652 15.8536C9.34178 16.0488 9.65837 16.0488 9.85363 15.8536L12.3907 13.3165L13.5787 15.3955C13.9876 16.1111 14.9651 16.242 15.5479 15.6592L15.8536 15.3536C16.0488 15.1583 16.0488 14.8417 15.8536 14.6465C15.6583 14.4512 15.3417 14.4512 15.1464 14.6465L14.8408 14.9521C14.7242 15.0687 14.5287 15.0425 14.4469 14.8994L13.1236 12.5836L15.8536 9.85355C16.0489 9.65829 16.0489 9.34171 15.8536 9.14645C15.6584 8.95118 15.3418 8.95118 15.1465 9.14645L12.6094 11.6836L11.4213 9.6045C11.0124 8.88888 10.0349 8.75798 9.45211 9.34079L9.14645 9.64646C8.95118 9.84172 8.95118 10.1583 9.14645 10.3536C9.34171 10.5488 9.65829 10.5488 9.85355 10.3536L10.1592 10.0479Z" fill="white"/>
</g>
</g>
</g>
</svg>
