<svg width="20" height="20" viewBox="0 0 20 20" fill="none" xmlns="http://www.w3.org/2000/svg">
<g id="&#232;&#138;&#130;&#231;&#130;&#185;-&#231;&#148;&#187;&#229;&#184;&#131;">
<g id="http">
<path id="HTTP" d="M5.19922 9.42773V10.2188H3.01074V9.42773H5.19922ZM3.35352 7.73438V12H2.3252V7.73438H3.35352ZM5.89062 7.73438V12H4.86523V7.73438H5.89062ZM8.52148 7.73438V12H7.49316V7.73438H8.52148ZM9.80469 7.73438V8.52832H6.23926V7.73438H9.80469ZM12.3535 7.73438V12H11.3252V7.73438H12.3535ZM13.6367 7.73438V8.52832H10.0713V7.73438H13.6367ZM15.7754 10.5527H14.7148V9.75879H15.7754C15.9199 9.75879 16.0371 9.73438 16.127 9.68555C16.2168 9.63672 16.2822 9.56934 16.3232 9.4834C16.3662 9.39551 16.3877 9.29688 16.3877 9.1875C16.3877 9.07031 16.3662 8.96191 16.3232 8.8623C16.2822 8.7627 16.2168 8.68262 16.127 8.62207C16.0371 8.55957 15.9199 8.52832 15.7754 8.52832H15.1016V12H14.0732V7.73438H15.7754C16.1172 7.73438 16.4111 7.79688 16.6572 7.92188C16.9053 8.04688 17.0957 8.21875 17.2285 8.4375C17.3613 8.6543 17.4277 8.90234 17.4277 9.18164C17.4277 9.45703 17.3613 9.69727 17.2285 9.90234C17.0957 10.1074 16.9053 10.2676 16.6572 10.3828C16.4111 10.4961 16.1172 10.5527 15.7754 10.5527Z" fill="white"/>
</g>
</g>
</svg>
