<svg width="20" height="20" viewBox="0 0 20 20" fill="none" xmlns="http://www.w3.org/2000/svg">
<g id="&#232;&#138;&#130;&#231;&#130;&#185;-&#231;&#148;&#187;&#229;&#184;&#131;">
<g id="Document Arrow Down">
<path id="Shape" d="M6 5.00195C6 3.89738 6.89543 3.00195 8 3.00195H11.582C11.9797 3.00195 12.3611 3.15991 12.6424 3.4411L15.5605 6.35806C15.8419 6.63938 16 7.021 16 7.41892V14.998C16 16.1026 15.1046 16.998 14 16.998H10.6659C11.0686 16.7141 11.4315 16.3774 11.7445 15.998H14C14.5523 15.998 15 15.5503 15 14.998V8.0029H12.4995C11.6711 8.0029 10.9995 7.33133 10.9995 6.5029V4.00195H8C7.44771 4.00195 7 4.44967 7 5.00195V7.02242C6.65659 7.05337 6.32228 7.11588 6 7.20703V5.00195ZM11.9995 4.21237V6.5029C11.9995 6.77904 12.2234 7.0029 12.4995 7.0029H14.7911L11.9995 4.21237ZM12 12.5C12 14.9853 9.98528 17 7.5 17C5.01472 17 3 14.9853 3 12.5C3 10.0147 5.01472 8 7.5 8C9.98528 8 12 10.0147 12 12.5ZM7.14605 14.8532L7.14857 14.8557C7.19602 14.9026 7.25051 14.938 7.30861 14.9621C7.36669 14.9861 7.4303 14.9996 7.497 15L7.5 15L7.503 15C7.5697 14.9996 7.63331 14.9861 7.69139 14.9621C7.75036 14.9377 7.80561 14.9015 7.85355 14.8536L9.85355 12.8536C10.0488 12.6583 10.0488 12.3417 9.85355 12.1464C9.65829 11.9512 9.34171 11.9512 9.14645 12.1464L8 13.2929V10.5C8 10.2239 7.77614 10 7.5 10C7.22386 10 7 10.2239 7 10.5L7 13.2929L5.85355 12.1464C5.65829 11.9512 5.34171 11.9512 5.14645 12.1464C4.95118 12.3417 4.95118 12.6583 5.14645 12.8536L7.14605 14.8532Z" fill="white"/>
</g>
</g>
</svg>
