<svg width="20" height="20" viewBox="0 0 20 20" fill="none" xmlns="http://www.w3.org/2000/svg">
<g id="&#232;&#138;&#130;&#231;&#130;&#185;-&#231;&#148;&#187;&#229;&#184;&#131;">
<g id="Document Text">
<path id="Shape" d="M5 5C5 3.89543 5.89543 3 7 3H10.5858C10.9836 3 11.3651 3.15804 11.6464 3.43934L14.5607 6.35355C14.842 6.63486 15 7.01639 15 7.41421V15C15 16.1046 14.1046 17 13 17H7C5.89543 17 5 16.1046 5 15V5ZM7 4C6.44772 4 6 4.44772 6 5V15C6 15.5523 6.44772 16 7 16H13C13.5523 16 14 15.5523 14 15V8H11.5C10.6716 8 10 7.32843 10 6.5V4H7ZM11.5 7H13.7929L11 4.20711V6.5C11 6.77614 11.2239 7 11.5 7ZM7.5 10C7.22386 10 7 10.2239 7 10.5C7 10.7761 7.22386 11 7.5 11H12.5C12.7761 11 13 10.7761 13 10.5C13 10.2239 12.7761 10 12.5 10H7.5ZM7 12.5C7 12.2239 7.22386 12 7.5 12H12.5C12.7761 12 13 12.2239 13 12.5C13 12.7761 12.7761 13 12.5 13H7.5C7.22386 13 7 12.7761 7 12.5ZM7.5 14C7.22386 14 7 14.2239 7 14.5C7 14.7761 7.22386 15 7.5 15H12.5C12.7761 15 13 14.7761 13 14.5C13 14.2239 12.7761 14 12.5 14H7.5Z" fill="white"/>
</g>
</g>
</svg>
