<svg width="20" height="20" viewBox="0 0 20 20" fill="none" xmlns="http://www.w3.org/2000/svg">
<g id="&#232;&#138;&#130;&#231;&#130;&#185;-&#231;&#148;&#187;&#229;&#184;&#131;">
<g id="Arrow Repeat All">
<path id="Shape" d="M14.8935 7.23813C15.579 7.95612 16 8.92889 16 9.99999C16 12.1422 14.316 13.8911 12.1996 13.9951L12 14L8.707 13.9993L9.85525 15.1481C10.0288 15.3217 10.0481 15.5911 9.91311 15.786L9.85525 15.8552C9.68169 16.0288 9.41226 16.0481 9.21739 15.9131L9.14815 15.8552L7.14645 13.8535C6.97288 13.68 6.9536 13.4106 7.08859 13.2157L7.14645 13.1464L9.14815 11.1447C9.34341 10.9495 9.65999 10.9495 9.85525 11.1447C10.0288 11.3183 10.0481 11.5877 9.91311 11.7826L9.85525 11.8518L8.707 12.9993L12 13C13.5977 13 14.9037 11.7511 14.9949 10.1763L15 9.99999C15 9.17803 14.6694 8.43327 14.134 7.89142C14.0522 7.80329 14 7.68218 14 7.54889C14 7.27275 14.2239 7.04889 14.5 7.04889C14.6227 7.04889 14.7351 7.09311 14.8221 7.16648L14.8935 7.23813ZM10.7843 4.08688L10.8536 4.14474L12.8553 6.14644L12.9131 6.21569C13.0312 6.3862 13.0312 6.61379 12.9131 6.7843L12.8553 6.85354L10.8536 8.85525L10.7843 8.9131C10.6138 9.03122 10.3862 9.03122 10.2157 8.9131L10.1464 8.85525L10.0886 8.786C9.97047 8.61549 9.97047 8.3879 10.0886 8.21739L10.1464 8.14814L11.294 6.99929L8 6.99999C6.40232 6.99999 5.09634 8.24891 5.00509 9.82372L5 9.99999C5 10.8195 5.32863 11.5623 5.8613 12.1038C5.94745 12.1922 6 12.3137 6 12.4475C6 12.7236 5.77614 12.9475 5.5 12.9475C5.36244 12.9475 5.23785 12.8919 5.14745 12.802C4.4379 12.0825 4 11.0924 4 9.99999C4 7.8578 5.68397 6.10891 7.80036 6.00489L8 5.99999L11.294 5.99929L10.1464 4.85184L10.0886 4.7826C9.9536 4.58773 9.97288 4.3183 10.1464 4.14474C10.32 3.97117 10.5894 3.95189 10.7843 4.08688Z" fill="white"/>
</g>
</g>
</svg>
