<svg width="20" height="20" viewBox="0 0 20 20" fill="none" xmlns="http://www.w3.org/2000/svg">
<g id="&#232;&#138;&#130;&#231;&#130;&#185;-&#231;&#148;&#187;&#229;&#184;&#131;">
<g id="or">
<path id="OR" d="M9.66992 10.5V10.9688C9.66992 11.6133 9.58594 12.1914 9.41797 12.7031C9.25 13.2148 9.00977 13.6504 8.69727 14.0098C8.38867 14.3691 8.01758 14.6445 7.58398 14.8359C7.15039 15.0234 6.66992 15.1172 6.14258 15.1172C5.61914 15.1172 5.14062 15.0234 4.70703 14.8359C4.27734 14.6445 3.9043 14.3691 3.58789 14.0098C3.27148 13.6504 3.02539 13.2148 2.84961 12.7031C2.67773 12.1914 2.5918 11.6133 2.5918 10.9688V10.5C2.5918 9.85547 2.67773 9.2793 2.84961 8.77148C3.02148 8.25977 3.26367 7.82422 3.57617 7.46484C3.89258 7.10156 4.26562 6.82617 4.69531 6.63867C5.12891 6.44727 5.60742 6.35156 6.13086 6.35156C6.6582 6.35156 7.13867 6.44727 7.57227 6.63867C8.00586 6.82617 8.37891 7.10156 8.69141 7.46484C9.00391 7.82422 9.24414 8.25977 9.41211 8.77148C9.58398 9.2793 9.66992 9.85547 9.66992 10.5ZM8.19922 10.9688V10.4883C8.19922 10.0117 8.15234 9.5918 8.05859 9.22852C7.96875 8.86133 7.83398 8.55469 7.6543 8.30859C7.47852 8.05859 7.26172 7.87109 7.00391 7.74609C6.74609 7.61719 6.45508 7.55273 6.13086 7.55273C5.80664 7.55273 5.51758 7.61719 5.26367 7.74609C5.00977 7.87109 4.79297 8.05859 4.61328 8.30859C4.4375 8.55469 4.30273 8.86133 4.20898 9.22852C4.11523 9.5918 4.06836 10.0117 4.06836 10.4883V10.9688C4.06836 11.4453 4.11523 11.8672 4.20898 12.2344C4.30273 12.6016 4.43945 12.9121 4.61914 13.166C4.80273 13.416 5.02148 13.6055 5.27539 13.7344C5.5293 13.8594 5.81836 13.9219 6.14258 13.9219C6.4707 13.9219 6.76172 13.8594 7.01562 13.7344C7.26953 13.6055 7.48438 13.416 7.66016 13.166C7.83594 12.9121 7.96875 12.6016 8.05859 12.2344C8.15234 11.8672 8.19922 11.4453 8.19922 10.9688ZM11.1406 6.46875H14.1582C14.8066 6.46875 15.3594 6.56641 15.8164 6.76172C16.2734 6.95703 16.623 7.24609 16.8652 7.62891C17.1113 8.00781 17.2344 8.47656 17.2344 9.03516C17.2344 9.46094 17.1562 9.83594 17 10.1602C16.8438 10.4844 16.623 10.7578 16.3379 10.9805C16.0527 11.1992 15.7129 11.3691 15.3184 11.4902L14.873 11.707H12.1602L12.1484 10.541H14.1816C14.5332 10.541 14.8262 10.4785 15.0605 10.3535C15.2949 10.2285 15.4707 10.0586 15.5879 9.84375C15.709 9.625 15.7695 9.37891 15.7695 9.10547C15.7695 8.80859 15.7109 8.55078 15.5938 8.33203C15.4805 8.10938 15.3047 7.93945 15.0664 7.82227C14.8281 7.70117 14.5254 7.64062 14.1582 7.64062H12.6113V15H11.1406V6.46875ZM16.0098 15L14.0059 11.168L15.5469 11.1621L17.5801 14.9238V15H16.0098Z" fill="white"/>
</g>
</g>
</svg>
