<svg width="20" height="20" viewBox="0 0 20 20" fill="none" xmlns="http://www.w3.org/2000/svg">
<g id="&#232;&#138;&#130;&#231;&#130;&#185;-&#231;&#148;&#187;&#229;&#184;&#131;">
<g id="Flash">
<path id="Shape" d="M6.91447 3.71442C7.04078 3.29055 7.43053 3 7.87282 3H12.2786C12.9768 3 13.4601 3.69737 13.2149 4.35112L12.2216 7H14.2511C14.8791 7 15.229 7.72572 14.8379 8.21709L8.23096 16.5173C7.37726 17.5898 5.66907 16.7047 6.05299 15.3888L7.33338 11H5.74951C5.24769 11 4.88743 10.5167 5.03074 10.0358L6.91447 3.71442ZM12.2786 4H7.87282L6.08487 10H8.00009C8.15748 10 8.30568 10.0741 8.4001 10.2C8.49453 10.3259 8.52416 10.4889 8.48008 10.64L7.01297 15.6688C6.98941 15.7496 7.00096 15.8045 7.0195 15.8434C7.04067 15.888 7.08121 15.9314 7.13794 15.9608C7.19467 15.9902 7.25354 15.9983 7.30213 15.9899C7.34467 15.9826 7.39618 15.9603 7.44856 15.8945L13.7326 8H11.5001C11.3361 8 11.1825 7.91958 11.0891 7.7848C10.9957 7.65001 10.9743 7.47799 11.0319 7.32444L12.2786 4Z" fill="white"/>
</g>
</g>
</svg>
