<svg width="20" height="20" viewBox="0 0 20 20" fill="none" xmlns="http://www.w3.org/2000/svg">
<g id="&#232;&#138;&#130;&#231;&#130;&#185;-&#231;&#148;&#187;&#229;&#184;&#131;">
<g id="rabbit message">
<path id="Subtract" d="M5.5 4C5.77614 4 6 4.22386 6 4.5V9.04004H7V4.5C7 4.22386 7.22386 4 7.5 4H8.5C8.77614 4 9 4.22386 9 4.5V9.04004H15.5C15.7761 9.04004 16 9.2639 16 9.54004V15.5C16 15.7761 15.7761 16 15.5 16H4.5C4.22386 16 4 15.7761 4 15.5V4.5C4 4.22386 4.22386 4 4.5 4H5.5ZM12.5 11C12.1022 11 11.7208 11.1581 11.4395 11.4395C11.1581 11.7208 11 12.1022 11 12.5C11 12.8978 11.1581 13.2792 11.4395 13.5605C11.7208 13.8419 12.1022 14 12.5 14C12.8978 14 13.2792 13.8419 13.5605 13.5605C13.8419 13.2792 14 12.8978 14 12.5C14 12.1022 13.8419 11.7208 13.5605 11.4395C13.2792 11.1581 12.8978 11 12.5 11Z" fill="white"/>
</g>
</g>
</svg>
