<svg width="20" height="20" viewBox="0 0 20 20" fill="none" xmlns="http://www.w3.org/2000/svg">
<g id="&#232;&#138;&#130;&#231;&#130;&#185;-&#231;&#148;&#187;&#229;&#184;&#131;">
<g id="raven" clip-path="url(#clip0_5212_139658)">
<path id="Subtract" d="M11.9321 4.20721C13.1316 1.51654 15.1939 3.60366 15.2417 3.65545C15.2417 3.65545 15.6187 3.76808 16.3452 3.96502C17.0665 4.16059 17.3322 4.42467 18.0005 4.75897L17.6646 4.91229L17.396 5.03534H17.395L15.5845 5.86248C15.5711 5.86962 14.7468 6.31021 14.6831 6.94647C14.6826 6.95304 14.6877 6.9597 14.6899 6.966C14.6914 6.96951 14.8931 7.45009 14.7524 8.30389C14.6035 9.2077 14.1209 10.0221 13.4399 10.6349C13.1081 10.9344 12.7721 11.2294 12.4331 11.5207C11.846 12.0218 11.9241 12.592 12.2075 13.3098C12.2102 13.3168 12.7295 13.8345 13.1841 14.4064C14.4517 14.8562 15.5043 15.8258 16.2104 16.9484C16.2713 17.0451 16.1987 17.1718 16.0845 17.1721H6.97412C6.86311 17.1721 6.78935 17.052 6.84326 16.9553C7.50166 15.7843 8.57578 14.8781 9.86475 14.4357C10.1033 14.0203 10.5423 13.5957 10.5522 13.5861C9.42197 11.4971 7.27136 11.925 7.24268 11.9308C5.17908 11.9193 2.56637 12.7985 2.55322 12.8029C2.64314 12.1468 5.46705 10.9426 6.22803 10.6291C6.22515 10.6295 6.22211 10.6306 6.21924 10.631L6.41455 10.5519C5.57089 10.2426 2.0148 11.1005 2.00146 11.1037C2.01333 11.0938 2.02568 11.0842 2.0376 11.0744L2.03662 11.0754C2.06117 11.0552 2.08702 11.0366 2.11182 11.0168C2.41387 10.7758 2.73225 10.5611 3.06396 10.3674C3.1052 10.3433 3.14738 10.3206 3.18896 10.2971C3.65728 10.0321 4.14718 9.80186 4.64111 9.5783C4.74962 9.52917 4.85757 9.47857 4.96631 9.42987C5.19274 9.32837 5.40451 9.23254 5.59619 9.14373L5.59814 9.14276C5.88403 9.00983 6.16596 8.86857 6.44385 8.71991C6.73092 8.56633 7.01369 8.40455 7.2915 8.23455C7.87602 7.87798 8.47205 7.56504 9.01318 7.30389C9.55436 7.04267 10.0412 6.83271 10.4087 6.6828C10.6106 6.60071 10.798 6.48736 10.9673 6.35174C11.0731 6.26669 11.1712 6.17245 11.2603 6.06952C11.2743 6.0533 11.2887 6.03729 11.3022 6.02069C11.3364 5.97886 11.3697 5.93612 11.4009 5.89178L11.5015 5.73651C11.5747 5.61187 11.6378 5.48105 11.686 5.34393C11.7514 5.15614 11.8235 4.45099 11.9321 4.20721ZM11.1235 12.4836C11.0875 12.4811 11.0513 12.4857 11.0171 12.4973C10.9828 12.5086 10.9507 12.5263 10.9233 12.55C10.8961 12.5736 10.8741 12.6028 10.8579 12.6349C10.8417 12.6673 10.8322 12.7034 10.8296 12.7394C10.8271 12.7754 10.8309 12.8117 10.8423 12.8459L11.2769 14.1496C11.402 14.1411 11.5284 14.1379 11.6558 14.1379C11.7232 14.1379 11.7903 14.1427 11.8569 14.1457L11.3657 12.6711C11.3544 12.6368 11.3366 12.6046 11.313 12.5773C11.2894 12.5501 11.2602 12.5281 11.228 12.5119C11.1956 12.4957 11.1597 12.4861 11.1235 12.4836ZM13.687 3.66815C13.4972 3.66829 13.3149 3.74253 13.1792 3.87518C13.0434 4.00804 12.9647 4.18915 12.9604 4.37909C12.9583 4.47587 12.9757 4.57225 13.0112 4.66229C13.0468 4.75223 13.0999 4.83434 13.1675 4.9035C13.2352 4.97273 13.3165 5.02807 13.4058 5.06561C13.495 5.10314 13.5911 5.12227 13.688 5.12225C13.7848 5.12219 13.881 5.10317 13.9702 5.06561C14.0593 5.02803 14.1399 4.97268 14.2075 4.9035C14.2752 4.8343 14.3282 4.75229 14.3638 4.66229C14.3993 4.57226 14.4167 4.47584 14.4146 4.37909C14.4103 4.18911 14.3317 4.00801 14.1958 3.87518C14.0599 3.74239 13.877 3.6681 13.687 3.66815Z" fill="white"/>
</g>
</g>
<defs>
<clipPath id="clip0_5212_139658">
<rect width="16" height="16" fill="white" transform="translate(2 2)"/>
</clipPath>
</defs>
</svg>
