<svg width="20" height="20" viewBox="0 0 20 20" fill="none" xmlns="http://www.w3.org/2000/svg">
<g id="&#232;&#138;&#130;&#231;&#130;&#185;-&#231;&#148;&#187;&#229;&#184;&#131;">
<g id="Lock Open">
<path id="Shape" d="M13 4.5C13 3.94772 13.4477 3.5 14 3.5C14.5523 3.5 15 3.94772 15 4.5C15 4.77614 15.2239 5 15.5 5C15.7761 5 16 4.77614 16 4.5C16 3.39543 15.1046 2.5 14 2.5C12.8954 2.5 12 3.39543 12 4.5V6H6.5C5.11929 6 4 7.11929 4 8.5V13.5C4 14.8807 5.11929 16 6.5 16H13.5C14.8807 16 16 14.8807 16 13.5V8.5C16 7.11929 14.8807 6 13.5 6H13V4.5ZM6.5 7H13.5C14.3284 7 15 7.67157 15 8.5V13.5C15 14.3284 14.3284 15 13.5 15H6.5C5.67157 15 5 14.3284 5 13.5V8.5C5 7.67157 5.67157 7 6.5 7ZM11 11C11 11.5523 10.5523 12 10 12C9.44772 12 9 11.5523 9 11C9 10.4477 9.44772 10 10 10C10.5523 10 11 10.4477 11 11Z" fill="white"/>
</g>
</g>
</svg>
