<svg width="20" height="20" viewBox="0 0 20 20" fill="none" xmlns="http://www.w3.org/2000/svg">
<g id="&#232;&#138;&#130;&#231;&#130;&#185;-&#231;&#148;&#187;&#229;&#184;&#131;">
<g id="Slide Play">
<path id="Subtract" d="M15 5C16.1046 5 17 5.89543 17 7V9.33887C16.7159 8.93516 16.3799 8.57056 16 8.25684V7C16 6.44772 15.5523 6 15 6H5C4.44772 6 4 6.44772 4 7V13C4 13.5523 4.44772 14 5 14H7.20801C7.30669 14.3488 7.43948 14.6831 7.60156 15H5L4.7959 14.9893C3.85435 14.8938 3.1062 14.1457 3.01074 13.2041L3 13V7C3 5.89543 3.89543 5 5 5H15Z" fill="white"/>
<g id="Modifier">
<path id="Subtract_2" d="M12.5 8C14.9853 8 17 10.0146 17 12.5C17 14.9854 14.9853 17 12.5 17C10.0147 17 8 14.9854 8 12.5C8 10.0146 10.0147 8 12.5 8ZM11.7607 10.4551C11.6946 10.4551 11.6316 10.469 11.5723 10.4971C11.5131 10.5237 11.461 10.5596 11.417 10.6055C11.373 10.6513 11.3376 10.705 11.3105 10.7666C11.2851 10.8284 11.2725 10.894 11.2725 10.9629V14.0371C11.2725 14.1042 11.2852 14.1688 11.3105 14.2305C11.3376 14.2918 11.373 14.3468 11.417 14.3945C11.4627 14.4402 11.5159 14.4775 11.5752 14.5059C11.6345 14.5322 11.6964 14.5459 11.7607 14.5459C11.8099 14.5459 11.8561 14.5383 11.8984 14.5244C11.9106 14.5205 11.9226 14.5158 11.9346 14.5107C11.966 14.4978 11.9968 14.4811 12.0273 14.4609L14.3242 12.8945C14.3759 12.8604 14.4193 12.8174 14.4541 12.7656C14.466 12.7479 14.4764 12.7289 14.4863 12.709C14.5253 12.6314 14.5449 12.5504 14.5449 12.4658C14.5449 12.3779 14.5249 12.2967 14.4844 12.2227C14.4437 12.1468 14.3875 12.0859 14.3164 12.04L12.0205 10.5342C11.9425 10.4812 11.8556 10.4551 11.7607 10.4551Z" fill="white"/>
</g>
</g>
</g>
</svg>
