<svg width="20" height="20" viewBox="0 0 20 20" fill="none" xmlns="http://www.w3.org/2000/svg">
<g id="&#232;&#138;&#130;&#231;&#130;&#185;-&#231;&#148;&#187;&#229;&#184;&#131;">
<g id="Braces Variable">
<path id="Shape" d="M6.5 4C5.39543 4 4.5 4.89543 4.5 6V8.00469C4.5 8.53494 4.49231 8.79889 4.41088 9.00209C4.34826 9.15835 4.21576 9.33309 3.7764 9.55276C3.60701 9.63745 3.5 9.81058 3.5 9.99997C3.5 10.1894 3.60699 10.3625 3.77638 10.4472C4.21569 10.6668 4.34809 10.8415 4.41076 10.9982C4.49233 11.2021 4.5 11.4673 4.5 12L4.5 14C4.5 15.1046 5.39543 16 6.5 16C6.77614 16 7 15.7761 7 15.5C7 15.2239 6.77614 15 6.5 15C5.94772 15 5.5 14.5523 5.5 14L5.50003 11.9414C5.50033 11.4924 5.50065 11.0303 5.33924 10.6268C5.24212 10.384 5.09654 10.1796 4.90072 10C5.09646 9.82057 5.24199 9.61645 5.33912 9.37408C5.50065 8.971 5.50033 8.51001 5.50003 8.063L5.5 6C5.5 5.44772 5.94772 5 6.5 5C6.77614 5 7 4.77614 7 4.5C7 4.22386 6.77614 4 6.5 4ZM13.5 4C14.6046 4 15.5 4.89543 15.5 6V8.00469C15.5 8.53494 15.5077 8.79889 15.5891 9.00209C15.6517 9.15835 15.7842 9.33309 16.2236 9.55276C16.393 9.63745 16.5 9.81058 16.5 9.99997C16.5 10.1894 16.393 10.3625 16.2236 10.4472C15.7843 10.6668 15.6519 10.8415 15.5892 10.9982C15.5077 11.2021 15.5 11.4673 15.5 12V14C15.5 15.1046 14.6046 16 13.5 16C13.2239 16 13 15.7761 13 15.5C13 15.2239 13.2239 15 13.5 15C14.0523 15 14.5 14.5523 14.5 14L14.5 11.9414C14.4997 11.4924 14.4994 11.0303 14.6608 10.6268C14.7579 10.384 14.9035 10.1796 15.0993 10C14.9035 9.82057 14.758 9.61645 14.6609 9.37408C14.4993 8.971 14.4997 8.51001 14.5 8.063L14.5 6C14.5 5.44772 14.0523 5 13.5 5C13.2239 5 13 4.77614 13 4.5C13 4.22386 13.2239 4 13.5 4Z" fill="white"/>
<path id="Line 145" d="M7.75004 7L12.25 13" stroke="white" stroke-linecap="round"/>
<path id="Line 146" d="M12.25 7L7.75 13" stroke="white" stroke-linecap="round"/>
</g>
</g>
</svg>
