<svg width="20" height="20" viewBox="0 0 20 20" fill="none" xmlns="http://www.w3.org/2000/svg">
<g id="&#232;&#138;&#130;&#231;&#130;&#185;-&#231;&#148;&#187;&#229;&#184;&#131;">
<g id="run rule">
<path id="Shape" d="M5.75 4C4.7835 4 4 4.7835 4 5.75V13.5C4 14.8807 5.11929 16 6.5 16H13.5C14.8807 16 16 14.8807 16 13.5V12H13V5.75C13 4.7835 12.2165 4 11.25 4H5.75ZM13 13H15V13.5C15 14.3284 14.3284 15 13.5 15H13V13ZM5 5.75C5 5.33579 5.33579 5 5.75 5H11.25C11.6642 5 12 5.33579 12 5.75V15H6.5C5.67157 15 5 14.3284 5 13.5V5.75ZM6.5 7.5C6.5 7.22386 6.72386 7 7 7H10C10.2761 7 10.5 7.22386 10.5 7.5C10.5 7.77614 10.2761 8 10 8H7C6.72386 8 6.5 7.77614 6.5 7.5ZM6.5 10C6.5 9.72386 6.72386 9.5 7 9.5H10C10.2761 9.5 10.5 9.72386 10.5 10C10.5 10.2761 10.2761 10.5 10 10.5H7C6.72386 10.5 6.5 10.2761 6.5 10ZM7 12C6.72386 12 6.5 12.2239 6.5 12.5C6.5 12.7761 6.72386 13 7 13H8.5C8.77614 13 9 12.7761 9 12.5C9 12.2239 8.77614 12 8.5 12H7Z" fill="white"/>
</g>
</g>
</svg>
