<svg width="20" height="20" viewBox="0 0 20 20" fill="none" xmlns="http://www.w3.org/2000/svg">
<g id="&#232;&#138;&#130;&#231;&#130;&#185;-&#231;&#148;&#187;&#229;&#184;&#131;">
<g id="Flow Dot">
<path id="Shape" d="M5.5 4C6.15293 4 6.70703 4.41766 6.91309 5H13.5C14.8807 5 16 6.11929 16 7.5C16 8.88071 14.8807 10 13.5 10H6.5C5.67157 10 5 10.6716 5 11.5C5 12.3284 5.67157 13 6.5 13H13.0869C13.293 12.4177 13.8471 12 14.5 12C15.3284 12 16 12.6716 16 13.5C16 14.3284 15.3284 15 14.5 15C13.8471 15 13.293 14.5823 13.0869 14H6.5C5.11929 14 4 12.8807 4 11.5C4 10.1193 5.11929 9 6.5 9H13.5C14.3284 9 15 8.32843 15 7.5C15 6.67157 14.3284 6 13.5 6H6.91309C6.70703 6.58234 6.15293 7 5.5 7C4.67157 7 4 6.32843 4 5.5C4 4.67157 4.67157 4 5.5 4Z" fill="white"/>
</g>
</g>
</svg>
