<svg width="20" height="20" viewBox="0 0 20 20" fill="none" xmlns="http://www.w3.org/2000/svg">
<g id="&#232;&#138;&#130;&#231;&#130;&#185;-&#231;&#148;&#187;&#229;&#184;&#131;">
<g id="rv">
<path id="RV" d="M2.86719 5.46875H5.88477C6.5332 5.46875 7.08594 5.56641 7.54297 5.76172C8 5.95703 8.34961 6.24609 8.5918 6.62891C8.83789 7.00781 8.96094 7.47656 8.96094 8.03516C8.96094 8.46094 8.88281 8.83594 8.72656 9.16016C8.57031 9.48438 8.34961 9.75781 8.06445 9.98047C7.7793 10.1992 7.43945 10.3691 7.04492 10.4902L6.59961 10.707H3.88672L3.875 9.54102H5.9082C6.25977 9.54102 6.55273 9.47852 6.78711 9.35352C7.02148 9.22852 7.19727 9.05859 7.31445 8.84375C7.43555 8.625 7.49609 8.37891 7.49609 8.10547C7.49609 7.80859 7.4375 7.55078 7.32031 7.33203C7.20703 7.10938 7.03125 6.93945 6.79297 6.82227C6.55469 6.70117 6.25195 6.64062 5.88477 6.64062H4.33789V14H2.86719V5.46875ZM7.73633 14L5.73242 10.168L7.27344 10.1621L9.30664 13.9238V14H7.73633ZM13.2324 12.4414L15.4766 5.46875H17.0996L14.041 14H12.9453L13.2324 12.4414ZM11.1582 5.46875L13.3848 12.4414L13.6895 14H12.5879L9.54102 5.46875H11.1582Z" fill="white"/>
</g>
</g>
</svg>
