<svg width="20" height="20" viewBox="0 0 20 20" fill="none" xmlns="http://www.w3.org/2000/svg">
<g id="&#232;&#138;&#130;&#231;&#130;&#185;-&#231;&#148;&#187;&#229;&#184;&#131;">
<g id="Save">
<path id="Shape" d="M6.0002 5C5.44791 5 5.0002 5.44772 5.0002 6V14C5.0002 14.5523 5.44791 15 6.0002 15V11.5C6.0002 10.6716 6.67177 10 7.5002 10H12.5002C13.3286 10 14.0002 10.6716 14.0002 11.5V15C14.5525 15 15.0002 14.5523 15.0002 14V7.62132C15.0002 7.3561 14.8948 7.10175 14.7073 6.91421L13.086 5.29289C12.8984 5.10536 12.6441 5 12.3789 5H12.0002V6.5C12.0002 7.32843 11.3286 8 10.5002 8H8.5002C7.67177 8 7.0002 7.32843 7.0002 6.5V5H6.0002ZM8.0002 5V6.5C8.0002 6.77614 8.22406 7 8.5002 7H10.5002C10.7763 7 11.0002 6.77614 11.0002 6.5V5H8.0002ZM13.0002 15V11.5C13.0002 11.2239 12.7763 11 12.5002 11H7.5002C7.22406 11 7.0002 11.2239 7.0002 11.5V15H13.0002ZM4.0002 6C4.0002 4.89543 4.89563 4 6.0002 4H12.3789C12.9093 4 13.418 4.21071 13.7931 4.58579L15.4144 6.20711C15.7895 6.58218 16.0002 7.09089 16.0002 7.62132V14C16.0002 15.1046 15.1048 16 14.0002 16H6.0002C4.89563 16 4.0002 15.1046 4.0002 14V6Z" fill="white"/>
</g>
</g>
</svg>
