<svg width="20" height="20" viewBox="0 0 20 20" fill="none" xmlns="http://www.w3.org/2000/svg">
<g id="&#232;&#138;&#130;&#231;&#130;&#185;-&#231;&#148;&#187;&#229;&#184;&#131;">
<g id="Calendar Play">
<path id="Shape" d="M13.5 4C14.8807 4 16 5.11929 16 6.5V8.59971C15.6832 8.43777 15.3486 8.30564 15 8.20703V8H5V13.5C5 14.3284 5.67157 15 6.5 15H8.20703C8.30564 15.3486 8.43777 15.6832 8.59971 16H6.5C5.11929 16 4 14.8807 4 13.5V6.5C4 5.11929 5.11929 4 6.5 4H13.5ZM13.5 5H6.5C5.67157 5 5 5.67157 5 6.5V7H15V6.5C15 5.67157 14.3284 5 13.5 5ZM13.5 18C15.9853 18 18 15.9854 18 13.5C18 11.0146 15.9853 9 13.5 9C11.0147 9 9 11.0146 9 13.5C9 15.9854 11.0147 18 13.5 18ZM12.7607 11.4546C12.8556 11.4546 12.9421 11.481 13.0201 11.5339L15.3163 13.0396C15.3875 13.0854 15.4435 13.1462 15.4842 13.2222C15.5248 13.2964 15.5452 13.3774 15.5452 13.4656C15.5452 13.5503 15.5257 13.6313 15.4867 13.709C15.4767 13.729 15.4657 13.7478 15.4536 13.7656C15.4189 13.8174 15.3756 13.8601 15.3239 13.8943L13.0277 15.4609C12.9971 15.4812 12.9661 15.498 12.9346 15.511C12.9225 15.5161 12.9103 15.5205 12.898 15.5244C12.8556 15.5383 12.8099 15.5454 12.7607 15.5454C12.6963 15.5454 12.6344 15.5322 12.5751 15.5059C12.5157 15.4775 12.4632 15.4404 12.4174 15.3948C12.3733 15.3469 12.3377 15.2922 12.3106 15.2307C12.2852 15.1689 12.2725 15.1045 12.2725 15.0374V11.9626C12.2725 11.8938 12.2852 11.8286 12.3106 11.7668C12.3377 11.7051 12.3733 11.6514 12.4174 11.6055C12.4615 11.5596 12.5132 11.5234 12.5725 11.4968C12.6319 11.4688 12.6946 11.4546 12.7607 11.4546Z" fill="white"/>
</g>
</g>
</svg>
