<svg width="20" height="20" viewBox="0 0 20 20" fill="none" xmlns="http://www.w3.org/2000/svg">
<g id="&#232;&#138;&#130;&#231;&#130;&#185;-&#231;&#148;&#187;&#229;&#184;&#131;">
<g id="Script">
<path id="Shape" d="M15 3H7.5C6.121 3 5 4.122 5 5.5V13H4C3.448 13 3 13.449 3 14V15C3 16.103 3.897 17 5 17H12C13.103 17 14 16.103 14 15V7H16C16.552 7 17 6.551 17 6V5C17 3.897 16.103 3 15 3ZM5 16C4.448 16 4 15.551 4 15V14H10V15C10 15.364 10.098 15.706 10.269 16H5ZM13 15C13 15.551 12.552 16 12 16C11.448 16 11 15.551 11 15V14C11 13.449 10.552 13 10 13H6V5.5C6 4.673 6.673 4 7.5 4H13.269C13.098 4.294 13 4.636 13 5V15ZM16 6H14V5C14 4.449 14.448 4 15 4C15.552 4 16 4.449 16 5V6Z" fill="white"/>
</g>
</g>
</svg>
