<svg width="20" height="20" viewBox="0 0 20 20" fill="none" xmlns="http://www.w3.org/2000/svg">
<g id="&#232;&#138;&#130;&#231;&#130;&#185;-&#231;&#148;&#187;&#229;&#184;&#131;">
<g id="Database">
<path id="Shape" d="M10 3C7.149 3 5 4.075 5 5.5V14.5C5 15.925 7.149 17 10 17C12.851 17 15 15.925 15 14.5V5.5C15 4.075 12.851 3 10 3ZM10 4C12.441 4 14 4.888 14 5.5C14 6.112 12.441 7 10 7C7.559 7 6 6.112 6 5.5C6 4.888 7.558 4 10 4ZM10 16C7.558 16 6 15.111 6 14.5V7.021C7.21405 7.71872 8.60095 8.05816 10 8C11.3991 8.05816 12.7859 7.71872 14 7.021V14.5C14 15.111 12.441 16 10 16Z" fill="white"/>
</g>
</g>
</svg>
