<svg width="20" height="20" viewBox="0 0 20 20" fill="none" xmlns="http://www.w3.org/2000/svg">
<g id="&#232;&#138;&#130;&#231;&#130;&#185;-&#231;&#148;&#187;&#229;&#184;&#131;">
<g id="switch2">
<path id="SW" d="M6.83936 11.9697C6.83936 11.8193 6.81608 11.6851 6.76953 11.5669C6.72656 11.4451 6.646 11.3359 6.52783 11.2393C6.41325 11.139 6.25033 11.0423 6.03906 10.9492C5.83138 10.8525 5.56283 10.7523 5.2334 10.6484C4.86816 10.5339 4.52799 10.4049 4.21289 10.2617C3.89779 10.1185 3.62028 9.95199 3.38037 9.76221C3.14404 9.57243 2.95964 9.354 2.82715 9.10693C2.69466 8.85628 2.62842 8.56624 2.62842 8.23682C2.62842 7.91455 2.69645 7.62093 2.83252 7.35596C2.97217 7.09098 3.16911 6.86361 3.42334 6.67383C3.67757 6.48047 3.97656 6.33187 4.32031 6.22803C4.66764 6.12419 5.05078 6.07227 5.46973 6.07227C6.0498 6.07227 6.55111 6.1779 6.97363 6.38916C7.39974 6.60042 7.72917 6.88688 7.96191 7.24854C8.19466 7.61019 8.31104 8.0166 8.31104 8.46777H6.83936C6.83936 8.22428 6.78743 8.00944 6.68359 7.82324C6.58333 7.63704 6.42936 7.49023 6.22168 7.38281C6.01758 7.27539 5.75977 7.22168 5.44824 7.22168C5.14746 7.22168 4.89681 7.26644 4.69629 7.35596C4.49935 7.44548 4.35075 7.56722 4.25049 7.72119C4.15381 7.87516 4.10547 8.04704 4.10547 8.23682C4.10547 8.38005 4.13949 8.50895 4.20752 8.62354C4.27555 8.73454 4.3776 8.84017 4.51367 8.94043C4.64974 9.03711 4.81803 9.12842 5.01855 9.21436C5.22266 9.29671 5.45898 9.37907 5.72754 9.46143C6.15723 9.59033 6.5332 9.73356 6.85547 9.89111C7.18132 10.0487 7.45166 10.2277 7.6665 10.4282C7.88493 10.6287 8.04785 10.8543 8.15527 11.105C8.26628 11.3556 8.32178 11.6403 8.32178 11.959C8.32178 12.2956 8.25553 12.5964 8.12305 12.8613C7.99056 13.1263 7.80078 13.3519 7.55371 13.5381C7.30664 13.7243 7.00944 13.8657 6.66211 13.9624C6.31836 14.0591 5.93343 14.1074 5.50732 14.1074C5.12777 14.1074 4.75179 14.0573 4.37939 13.957C4.01058 13.8532 3.67578 13.6992 3.375 13.4951C3.07422 13.2874 2.83431 13.026 2.65527 12.7109C2.47624 12.3923 2.38672 12.0199 2.38672 11.5938H3.86914C3.86914 11.8408 3.90853 12.0521 3.9873 12.2275C4.06966 12.3994 4.18424 12.5409 4.33105 12.6519C4.48145 12.7593 4.6569 12.8381 4.85742 12.8882C5.05794 12.9383 5.27458 12.9634 5.50732 12.9634C5.80811 12.9634 6.05518 12.9222 6.24854 12.8398C6.44548 12.7539 6.59229 12.6357 6.68896 12.4854C6.78923 12.335 6.83936 12.1631 6.83936 11.9697ZM10.8333 12.5015L12.3909 6.17969H13.2342L13.2879 7.51172L11.6229 14H10.7312L10.8333 12.5015ZM9.85039 6.17969L11.1287 12.48V14H10.1565L8.38408 6.17969H9.85039ZM14.9046 12.4531L16.1614 6.17969H17.6331L15.8606 14H14.8885L14.9046 12.4531ZM13.637 6.17969L15.1946 12.5229L15.2859 14H14.3943L12.7347 7.50635L12.7991 6.17969H13.637Z" fill="white"/>
</g>
</g>
</svg>
