<svg width="24" height="24" viewBox="0 0 24 24" fill="none" xmlns="http://www.w3.org/2000/svg">
<g id="task_sub_link">
<rect x="1" y="1" width="22" height="22" rx="11" fill="white"/>
<rect x="1" y="1" width="22" height="22" rx="11" stroke="#0064B4" stroke-width="2"/>
<path id="Subtract" d="M11.2929 12.7072C10.9024 13.0977 10.8995 13.7511 11.3963 13.9924C12.5145 14.5354 13.9 14.3427 14.8284 13.4143L17.6569 10.5859C18.8284 9.41429 18.8284 7.51479 17.6569 6.34322C16.4853 5.17165 14.5858 5.17165 13.4142 6.34322L12.7071 7.05033C12.3166 7.44085 12.3166 8.07402 12.7071 8.46454C13.0976 8.85507 13.7308 8.85507 14.1213 8.46454L14.8284 7.75743C15.219 7.36691 15.8521 7.36691 16.2427 7.75743C16.6332 8.14796 16.6332 8.78112 16.2427 9.17165L13.4142 12.0001C13.2735 12.1408 13.1012 12.2309 12.9201 12.2702C12.3803 12.3872 11.6834 12.3167 11.2929 12.7072Z" fill="#0064B4"/>
<path id="Subtract_2" d="M12.7071 11.2928C13.0976 10.9023 13.1005 10.2489 12.6037 10.0076C11.4855 9.46461 10.1 9.6573 9.17156 10.5857L6.34313 13.4141C5.17156 14.5857 5.17156 16.4852 6.34313 17.6568C7.51471 18.8284 9.4142 18.8284 10.5858 17.6568L11.2929 16.9497C11.6834 16.5591 11.6834 15.926 11.2929 15.5355C10.9024 15.1449 10.2692 15.1449 9.87867 15.5355L9.17156 16.2426C8.78104 16.6331 8.14787 16.6331 7.75735 16.2426C7.36682 15.852 7.36682 15.2189 7.75735 14.8284L10.5858 11.9999C10.7265 11.8592 10.8988 11.7691 11.0799 11.7298C11.6197 11.6128 12.3166 11.6833 12.7071 11.2928Z" fill="#0064B4"/>
</g>
</svg>
