<svg width="20" height="20" viewBox="0 0 20 20" fill="none" xmlns="http://www.w3.org/2000/svg">
<g id="&#232;&#138;&#130;&#231;&#130;&#185;-&#231;&#148;&#187;&#229;&#184;&#131;">
<g id="Document XML">
<path id="Subtract" d="M10.5859 3C10.9837 3.00004 11.3652 3.15818 11.6465 3.43945L14.5605 6.35352C14.8418 6.63478 15 7.01629 15 7.41406V11.0869C14.8435 11.0315 14.6754 11.0001 14.5 11C14.3246 11 14.1562 11.0314 14 11.0869V8H11.5C10.6716 8 10 7.32843 10 6.5V4H7C6.44772 4 6 4.44772 6 5V11.3818C5.92766 11.4466 5.86032 11.519 5.7998 11.5996L5.5 11.999L5.2002 11.5996C5.13961 11.5188 5.07246 11.4457 5 11.3809V5C5 3.89543 5.89543 3 7 3H10.5859ZM11 6.5C11 6.77614 11.2239 7 11.5 7H13.793L11 4.20703V6.5Z" fill="white"/>
<path id="Union" d="M6.59955 12.2002C6.76518 11.9795 7.07888 11.9342 7.29975 12.0996C7.52048 12.2652 7.56566 12.579 7.40033 12.7998L6.12494 14.5L7.40033 16.2002C7.56569 16.4211 7.52047 16.7348 7.29975 16.9004C7.07886 17.0658 6.76517 17.0206 6.59955 16.7998L5.49994 15.333L4.40033 16.7998C4.23474 17.0206 3.92103 17.0658 3.70014 16.9004C3.47933 16.7348 3.43414 16.4211 3.59955 16.2002L4.87397 14.5L3.59955 12.7998C3.43414 12.5789 3.47933 12.2652 3.70014 12.0996C3.92103 11.9343 4.23475 11.9794 4.40033 12.2002L5.49994 13.666L6.59955 12.2002ZM12.6152 12.0137C12.8406 12.0672 12.9999 12.2683 12.9999 12.5V16.5C12.9999 16.7761 12.776 17 12.4999 17C12.2238 17 11.9999 16.7762 11.9999 16.5V14.6182L10.9472 16.7237C10.8625 16.893 10.6893 17 10.4999 17C10.3106 17 10.1374 16.893 10.0527 16.7237L8.99994 14.6182V16.5C8.99994 16.7761 8.77603 17 8.49994 17C8.2238 17 7.99994 16.7762 7.99994 16.5V12.5C7.99996 12.2683 8.15925 12.0671 8.38471 12.0137C8.61036 11.9605 8.84352 12.069 8.94721 12.2764L10.4999 15.3819L12.0527 12.2764C12.1564 12.069 12.3895 11.9604 12.6152 12.0137ZM14.4999 12C14.776 12.0001 14.9999 12.2239 14.9999 12.5V16H16.4999C16.776 16.0001 16.9999 16.2239 16.9999 16.5C16.9999 16.7761 16.776 17 16.4999 17H14.4999C14.2238 17 13.9999 16.7762 13.9999 16.5V12.5C14 12.2239 14.2238 12 14.4999 12Z" fill="white"/>
</g>
</g>
</svg>
