<svg width="20" height="20" viewBox="0 0 20 20" fill="none" xmlns="http://www.w3.org/2000/svg">
<g id="&#232;&#138;&#130;&#231;&#130;&#185;-&#231;&#148;&#187;&#229;&#184;&#131;">
<g id="Clock for event" clip-path="url(#clip0_5212_139685)">
<path id="Subtract" d="M9 2C12.5264 2 15.4424 4.6078 15.9277 8H14.915C14.4388 5.16245 11.9729 3 9 3C5.68629 3 3 5.68629 3 9C3 12.3137 5.68629 15 9 15C9.0287 15 9.05733 14.9975 9.08594 14.9971C9.23806 15.4263 9.58297 15.7758 10.0332 15.9229C9.69597 15.9728 9.35111 16 9 16C5.13401 16 2 12.866 2 9C2 5.13401 5.13401 2 9 2ZM8.5 5C8.77614 5 9 5.22386 9 5.5V9H11.168L10.751 10H8.5C8.22386 10 8 9.77614 8 9.5V5.5C8 5.22386 8.22386 5 8.5 5Z" fill="white"/>
<g id="Modifier">
<path id="Shape" d="M12.252 15H10.502C10.1452 15 9.90319 14.637 10.0404 14.3077L12.1237 9.30769C12.2014 9.12137 12.3834 9 12.5853 9H16.0582C16.3995 9 16.6405 9.33435 16.5326 9.65811L15.752 12H16.8492C17.5299 12 17.8586 12.8338 17.3609 13.2983L12.4884 17.846C12.1242 18.1859 11.5413 17.8424 11.6622 17.3592L12.252 15Z" fill="white"/>
</g>
</g>
</g>
<defs>
<clipPath id="clip0_5212_139685">
<rect width="16" height="16" fill="white" transform="translate(2 2)"/>
</clipPath>
</defs>
</svg>
