<svg width="20" height="20" viewBox="0 0 20 20" fill="none" xmlns="http://www.w3.org/2000/svg">
<g id="&#232;&#138;&#130;&#231;&#130;&#185;-&#231;&#148;&#187;&#229;&#184;&#131;">
<g id="Globe">
<path id="Shape" d="M10 16C13.3137 16 16 13.3137 16 10C16 6.68629 13.3137 4 10 4C6.68629 4 4 6.68629 4 10C4 13.3137 6.68629 16 10 16ZM10 5C10.3737 5 10.8754 5.35608 11.3126 6.31781C11.4073 6.52619 11.4945 6.75446 11.5727 7H8.42735C8.50552 6.75446 8.5927 6.52619 8.68742 6.31781C9.12457 5.35608 9.62628 5 10 5ZM7.77705 5.90401C7.62614 6.23601 7.49428 6.6038 7.38411 7H5.99963C6.52341 6.30269 7.22525 5.74677 8.03766 5.39978C7.94287 5.56117 7.85596 5.7304 7.77705 5.90401ZM7.16299 8C7.05694 8.6275 7 9.30146 7 10C7 10.6985 7.05694 11.3725 7.16299 12H5.41604C5.14845 11.3875 5 10.7111 5 10C5 9.2889 5.14845 8.61246 5.41604 8H7.16299ZM7.38411 13C7.49428 13.3962 7.62614 13.764 7.77705 14.096C7.85596 14.2696 7.94287 14.4388 8.03766 14.6002C7.22525 14.2532 6.52341 13.6973 5.99963 13H7.38411ZM8.42735 13H11.5727C11.4945 13.2455 11.4073 13.4738 11.3126 13.6822C10.8754 14.6439 10.3737 15 10 15C9.62628 15 9.12457 14.6439 8.68742 13.6822C8.5927 13.4738 8.50552 13.2455 8.42735 13ZM11.8213 12H8.17866C8.06438 11.3892 8 10.714 8 10C8 9.28604 8.06438 8.6108 8.17866 8H11.8213C11.9356 8.6108 12 9.28604 12 10C12 10.714 11.9356 11.3892 11.8213 12ZM12.6159 13H14.0004C13.4766 13.6973 12.7747 14.2532 11.9623 14.6002C12.0571 14.4388 12.144 14.2696 12.2229 14.096C12.3739 13.764 12.5057 13.3962 12.6159 13ZM14.584 12H12.837C12.9431 11.3725 13 10.6985 13 10C13 9.30146 12.9431 8.6275 12.837 8H14.584C14.8516 8.61246 15 9.2889 15 10C15 10.7111 14.8516 11.3875 14.584 12ZM11.9623 5.39978C12.7747 5.74677 13.4766 6.30269 14.0004 7H12.6159C12.5057 6.6038 12.3739 6.23601 12.2229 5.90401C12.144 5.7304 12.0571 5.56117 11.9623 5.39978Z" fill="white"/>
</g>
</g>
</svg>
