<svg width="16" height="16" viewBox="0 0 16 16" fill="none" xmlns="http://www.w3.org/2000/svg">
<g id="reset node name">
<path id="Shape" d="M4.35355 0.146447C4.54882 0.341709 4.54882 0.658291 4.35355 0.853553L2.70711 2.5H9.5C12.8137 2.5 15.5 5.18629 15.5 8.5C15.5 11.8137 12.8137 14.5 9.5 14.5C6.18629 14.5 3.5 11.8137 3.5 8.5C3.5 8.22386 3.72386 8 4 8C4.27614 8 4.5 8.22386 4.5 8.5C4.5 11.2614 6.73858 13.5 9.5 13.5C12.2614 13.5 14.5 11.2614 14.5 8.5C14.5 5.73858 12.2614 3.5 9.5 3.5H2.70711L4.35355 5.14645C4.54882 5.34171 4.54882 5.65829 4.35355 5.85355C4.15829 6.04882 3.84171 6.04882 3.64645 5.85355L1.14645 3.35355C0.951184 3.15829 0.951184 2.84171 1.14645 2.64645L3.64645 0.146447C3.84171 -0.0488155 4.15829 -0.0488155 4.35355 0.146447Z" fill="#3B3B3B"/>
<path id="A" d="M12.6162 12H11.3418L10.7119 10.2178H7.95801L7.35254 12H6.08301L8.70508 4.99805H10.0137L12.6162 12ZM10.4043 9.27051L9.43262 6.47754C9.40332 6.38639 9.3724 6.23991 9.33984 6.03809H9.32031C9.29102 6.22363 9.25846 6.37012 9.22266 6.47754L8.26074 9.27051H10.4043Z" fill="#484847"/>
</g>
</svg>
